<?xml version="1.0" standalone="no"?>
<!DOCTYPE svg PUBLIC "-//W3C//DTD SVG 20010904//EN"
 "http://www.w3.org/TR/2001/REC-SVG-20010904/DTD/svg10.dtd">
<svg version="1.0" xmlns="http://www.w3.org/2000/svg"
 width="750.000000pt" height="750.000000pt" viewBox="0 0 750.000000 750.000000"
 preserveAspectRatio="xMidYMid meet">

<g transform="translate(0.000000,750.000000) scale(0.100000,-0.100000)"
fill="#000000" stroke="none">
<path d="M3485 6664 c-290 -28 -597 -104 -850 -209 -230 -95 -409 -198 -666
-382 -84 -61 -260 -222 -367 -338 -123 -133 -289 -352 -363 -481 -199 -345
-315 -667 -380 -1060 -21 -125 -24 -171 -24 -449 0 -278 3 -324 23 -445 43
-247 120 -516 199 -689 18 -40 33 -78 33 -84 0 -21 -155 1 -311 43 -20 6 -83
15 -140 21 -121 12 -248 -4 -328 -43 -121 -58 -191 -177 -191 -323 0 -138 62
-252 166 -305 42 -21 66 -25 164 -28 166 -6 242 13 460 113 74 34 164 70 199
80 59 16 66 16 76 1 7 -9 21 -16 32 -16 17 0 27 -19 58 -113 48 -144 93 -233
143 -282 21 -22 45 -51 51 -64 11 -19 18 -22 44 -16 18 3 78 11 134 17 l102
11 53 -50 c260 -245 634 -464 1018 -595 124 -42 303 -86 469 -114 181 -31 515
-43 721 -25 813 69 1578 496 2075 1156 33 44 72 90 88 103 15 13 27 30 27 38
0 7 23 53 51 101 27 49 87 161 131 251 44 90 87 166 94 169 8 3 62 -5 121 -17
60 -13 137 -29 173 -36 36 -7 106 -13 155 -13 239 -1 367 55 437 189 19 38 23
59 22 135 -1 205 -116 345 -308 378 -60 10 -80 9 -179 -11 -63 -13 -142 -38
-185 -57 -41 -19 -78 -33 -81 -30 -4 2 1 59 12 127 24 154 30 638 9 783 -67
469 -186 801 -425 1195 -39 63 -73 117 -76 120 -3 3 -33 41 -65 85 -91 122
-158 198 -294 333 -157 156 -383 332 -528 413 -32 18 -61 36 -64 39 -8 11
-226 118 -324 159 -118 50 -245 93 -376 126 -58 14 -121 30 -140 35 -137 36
-303 52 -565 55 -148 1 -288 1 -310 -1z m535 -145 c256 -23 551 -95 776 -190
242 -102 416 -202 627 -360 405 -304 716 -712 913 -1198 158 -390 225 -883
179 -1311 -16 -147 -50 -339 -63 -352 -12 -12 -72 -22 -72 -11 0 5 9 52 20
104 42 205 53 338 47 604 -5 243 -14 336 -52 515 -67 318 -212 656 -401 935
-142 208 -173 246 -333 405 -176 174 -295 268 -496 395 -305 192 -703 332
-1075 379 -165 21 -523 21 -685 1 -546 -69 -1071 -312 -1475 -683 -317 -291
-542 -616 -700 -1013 -230 -576 -248 -1243 -49 -1849 27 -85 30 -103 24 -169
-7 -79 -15 -81 -40 -11 -106 293 -162 527 -185 765 -37 402 16 842 147 1205
86 238 246 542 376 712 299 391 612 652 1029 859 155 77 167 82 353 144 162
54 381 102 539 119 151 17 444 19 596 5z m-35 -139 c404 -36 779 -158 1124
-367 301 -181 545 -404 768 -699 33 -44 68 -93 77 -110 9 -16 35 -58 57 -94
181 -295 301 -636 355 -1015 25 -167 24 -554 0 -715 -19 -123 -44 -248 -55
-266 -10 -17 -71 3 -71 23 0 28 -80 256 -106 300 -13 22 -39 61 -58 86 -19 25
-36 55 -38 68 -4 31 -55 51 -71 28 -12 -16 -79 -27 -302 -49 -55 -6 -161 -17
-235 -26 -235 -27 -240 -27 -240 -16 0 5 26 25 58 42 86 49 267 236 318 330
98 181 150 344 161 505 8 135 -24 244 -97 325 -35 39 -31 26 10 -35 47 -69 62
-129 61 -247 0 -121 -14 -186 -68 -328 -77 -203 -157 -324 -293 -444 -120
-106 -358 -228 -520 -266 -30 -8 -95 -16 -145 -20 l-90 -7 89 -1 c49 -1 87 -4
84 -7 -16 -17 -211 -45 -307 -45 -120 0 -191 10 -301 44 -82 26 -76 26 -390
-9 -398 -44 -355 -45 -368 8 l-11 42 2 -42 c2 -38 0 -43 -20 -43 -12 0 -25 -4
-28 -10 -3 -6 -17 -10 -30 -10 -18 0 -28 -10 -42 -40 -23 -49 -52 -53 -83 -10
-15 21 -30 30 -50 30 -15 0 -30 7 -34 15 -3 8 -14 15 -25 15 -11 0 -23 5 -26
10 -9 15 -35 12 -35 -3 0 -23 34 -49 47 -36 8 8 14 5 23 -10 7 -15 17 -20 29
-16 11 3 26 -4 41 -20 13 -13 38 -27 56 -31 28 -5 32 -9 24 -24 -14 -26 -30
-29 -86 -19 -33 6 -58 18 -76 38 -15 16 -51 37 -79 46 -58 20 -110 18 -349
-10 -74 -8 -200 -22 -280 -31 -237 -25 -396 -42 -550 -59 -319 -35 -424 -43
-442 -31 -23 14 -52 -3 -56 -34 -5 -33 -73 -153 -82 -143 -4 4 -17 51 -30 103
-73 307 -84 395 -84 700 0 217 3 276 22 395 60 376 172 675 385 1030 62 103
233 311 362 440 346 345 746 574 1211 694 112 29 335 67 439 74 112 8 347 6
450 -3z m1557 -3302 l-2 -57 42 -3 c35 -2 43 -7 43 -23 0 -21 -2 -22 -63 -24
l-38 -1 -17 -102 c-10 -57 -20 -152 -24 -212 -6 -108 -6 -108 15 -102 17 6 22
3 22 -11 0 -44 -54 -58 -86 -22 -15 17 -18 34 -16 95 1 41 7 105 13 142 6 37
13 93 16 126 l6 59 -36 -7 c-30 -6 -38 -3 -47 14 -15 29 -6 38 45 45 44 7 44
8 51 54 11 77 20 93 52 89 26 -3 27 -5 24 -60z m-410 -50 l-2 -58 44 0 c34 0
45 -4 48 -17 3 -15 -7 -20 -52 -28 l-55 -10 -17 -100 c-9 -55 -19 -152 -23
-215 -6 -100 -5 -113 8 -97 20 24 27 21 27 -8 0 -37 -40 -54 -75 -31 -23 15
-25 21 -24 99 0 45 6 118 14 162 7 44 14 87 16 95 1 8 1 28 1 43 -2 26 -5 28
-31 22 -20 -4 -34 -1 -45 11 -24 23 -15 37 29 46 54 12 62 21 69 89 l7 60 32
-3 32 -3 -3 -57z m173 3 c3 -6 0 -30 -6 -55 -10 -39 -15 -46 -36 -46 -23 0
-25 3 -19 32 11 56 45 94 61 69z m-1358 -68 c7 -18 -7 -168 -33 -348 -11 -70
-15 -149 -12 -217 3 -60 1 -108 -3 -108 -4 0 -17 8 -30 19 -18 14 -24 33 -30
87 -5 38 -5 91 -2 118 l6 49 -39 -7 c-21 -4 -63 -15 -93 -24 -51 -16 -56 -20
-81 -75 -15 -31 -41 -98 -56 -147 -16 -49 -34 -90 -40 -90 -5 0 -19 6 -29 14
-19 14 -19 15 -1 68 11 29 32 81 47 116 19 43 26 72 23 92 -5 22 -2 29 14 35
12 3 31 24 44 45 13 22 41 70 62 107 22 37 41 62 43 56 2 -6 -7 -29 -20 -50
-38 -61 -50 -86 -38 -78 6 3 23 27 36 53 14 26 46 77 70 115 25 37 43 67 41
67 -2 0 -20 -21 -40 -47 -71 -91 -30 -10 53 105 37 51 50 62 73 62 18 0 31 -7
35 -17z m961 -85 c44 -44 -33 -187 -110 -203 -21 -5 -29 -14 -33 -39 -9 -46
-2 -99 13 -104 8 -2 42 24 75 59 34 35 65 63 70 61 4 -1 7 1 7 6 0 4 11 20 25
36 14 16 25 35 25 43 0 7 4 13 10 13 8 0 -19 -64 -64 -148 -9 -18 -33 -51 -53
-73 -30 -34 -41 -39 -77 -39 -64 0 -89 32 -94 120 -4 61 -1 77 29 140 50 110
134 171 177 128z m361 -27 c11 -7 12 -20 3 -72 -20 -112 -24 -167 -14 -173 11
-6 77 91 113 166 15 31 26 44 31 36 9 -17 2 -49 -30 -123 -44 -102 -68 -135
-100 -135 -62 0 -88 74 -71 195 15 105 30 130 68 106z m-800 -10 c12 -8 12
-16 -3 -54 -16 -42 -47 -199 -41 -205 2 -2 8 14 15 35 6 21 14 45 17 53 4 8 5
21 4 27 -1 7 5 25 13 40 13 24 15 25 16 8 1 -19 1 -19 11 -2 6 11 12 25 13 32
7 45 60 59 92 24 15 -17 19 -37 19 -104 0 -77 -2 -85 -34 -132 -56 -82 -102
-104 -161 -79 -21 9 -44 -94 -38 -164 4 -41 2 -50 -11 -50 -49 1 -65 54 -50
170 17 143 63 338 91 393 10 19 25 21 47 8z m-344 -51 c4 -6 -3 -34 -14 -64
-18 -48 -45 -196 -37 -204 5 -4 30 91 28 104 -3 17 28 87 35 80 10 -10 33 15
33 35 0 23 34 42 61 34 33 -11 52 -52 53 -113 0 -73 -28 -137 -85 -192 -42
-40 -46 -42 -91 -37 l-47 6 -10 -52 c-15 -69 -16 -96 -7 -134 4 -18 5 -33 2
-33 -21 0 -58 28 -63 48 -16 67 35 393 77 490 19 41 50 57 65 32z m-1731 -24
c72 -30 99 -119 59 -194 -23 -43 -101 -122 -133 -134 -25 -10 -24 -10 18 -27
88 -35 117 -111 68 -175 -36 -48 -127 -88 -212 -94 -47 -3 -74 -1 -78 7 -10
16 -36 14 -36 -3 0 -9 -8 -12 -26 -8 l-27 5 7 101 c7 102 23 252 32 294 5 25
22 28 48 9 15 -11 16 -20 6 -85 -7 -41 -10 -75 -8 -77 2 -2 17 2 33 10 17 7
42 16 56 19 15 3 37 15 50 27 l24 21 -38 -21 c-62 -34 -54 -25 34 41 46 33 91
71 101 82 31 36 60 103 56 133 -3 26 -7 28 -51 31 -123 8 -319 -107 -402 -235
-30 -47 -37 -50 -55 -28 -29 35 28 114 143 201 69 52 131 82 202 100 67 16 90
17 129 0z m560 -109 c17 -12 17 -17 3 -58 -8 -24 -17 -60 -21 -79 -5 -31 -3
-29 20 19 20 40 29 50 36 40 8 -11 9 -10 4 3 -6 19 32 87 50 88 5 0 19 -6 29
-14 16 -11 20 -34 28 -147 11 -178 15 -199 33 -199 23 0 11 -25 -14 -28 -40
-6 -59 45 -67 184 -4 68 -11 122 -15 119 -12 -8 -101 -224 -113 -277 -14 -57
-35 -63 -66 -19 -16 22 -21 44 -21 88 0 43 3 54 11 43 7 -11 8 -5 3 23 -4 24
-2 37 5 37 6 0 11 15 11 33 0 41 40 157 55 157 6 0 19 -6 29 -13z m-201 -107
c27 -31 29 -37 24 -92 -10 -109 -88 -228 -150 -228 -19 0 -39 11 -59 31 -30
30 -31 31 -24 107 9 101 24 171 43 201 14 21 20 23 75 19 54 -4 65 -8 91 -38z
m3206 -487 c-293 -383 -671 -675 -1149 -885 -153 -68 -451 -149 -670 -183
-161 -25 -503 -31 -685 -11 -544 58 -1019 257 -1482 623 -18 14 -33 29 -33 34
0 5 22 9 49 9 46 0 57 -5 148 -74 54 -40 145 -101 203 -135 58 -34 112 -66
120 -71 8 -6 24 -14 35 -19 11 -5 58 -27 105 -50 215 -106 474 -185 735 -227
135 -21 571 -31 702 -15 349 42 612 119 909 267 329 163 563 340 822 624 105
115 122 127 176 129 26 1 27 -1 15 -16z m-189 -11 c0 -12 -229 -244 -305 -309
-38 -32 -95 -77 -125 -98 -30 -22 -57 -42 -60 -45 -31 -33 -244 -158 -390
-229 -204 -100 -416 -168 -650 -210 -63 -12 -144 -26 -180 -33 -41 -8 -158
-12 -320 -12 -217 0 -274 4 -385 23 -156 26 -350 72 -431 101 -171 62 -208 77
-310 125 -61 29 -152 78 -203 109 -51 31 -94 56 -96 56 -6 0 -146 101 -163
117 -6 6 -8 14 -3 17 9 6 112 19 286 36 55 6 111 12 125 15 14 2 120 14 235
25 116 11 264 27 330 35 66 8 208 24 315 35 107 11 233 25 280 30 47 5 173 19
280 30 107 11 233 25 280 30 47 5 173 19 280 30 107 11 231 25 275 30 44 5
143 16 220 24 313 33 534 57 595 65 89 11 120 12 120 3z"/>
<path d="M3883 6290 c-61 -37 -101 -162 -84 -265 12 -79 33 -112 80 -125 81
-22 111 -11 111 41 0 49 -16 51 -24 3 -6 -31 -10 -35 -33 -32 -14 2 -35 16
-47 31 -40 54 -31 233 15 298 16 22 28 29 54 29 29 0 36 -4 41 -26 4 -17 9
-22 14 -14 14 22 -3 52 -36 66 -44 18 -53 18 -91 -6z"/>
<path d="M3322 6278 c-18 -18 -15 -82 6 -100 9 -9 40 -27 69 -42 63 -31 73
-48 73 -120 0 -44 -5 -60 -24 -83 -20 -23 -28 -26 -43 -17 -23 14 -28 57 -9
74 35 28 4 40 -51 19 -24 -9 -26 -12 -12 -22 9 -7 21 -28 28 -48 33 -100 171
-53 171 58 0 69 -42 129 -116 167 -20 9 -34 26 -38 43 -4 15 -9 36 -12 46 -5
15 -1 18 23 15 20 -2 29 -9 31 -26 5 -33 26 -21 30 16 l3 32 -58 0 c-33 0 -64
-5 -71 -12z"/>
<path d="M4199 6238 c-41 -43 -77 -108 -114 -210 -21 -57 -47 -111 -59 -120
-25 -20 -22 -24 26 -33 38 -7 38 -7 32 23 -6 30 31 162 46 162 16 0 70 -22 70
-29 0 -31 -24 -131 -37 -150 -17 -27 -10 -36 33 -44 l31 -6 17 117 c29 189 32
257 12 287 -20 31 -29 31 -57 3z m18 -93 c-4 -36 -9 -70 -12 -75 -7 -12 -65 9
-65 23 0 20 60 117 72 117 7 0 9 -20 5 -65z"/>
<path d="M3111 6226 c-22 -26 -25 -148 -7 -264 14 -87 15 -116 6 -133 -12 -21
-11 -22 20 -15 18 3 36 6 41 6 15 0 10 22 -7 34 -16 12 -43 150 -31 162 3 3
20 7 38 7 31 2 32 0 55 -67 15 -42 21 -79 17 -94 -5 -22 -3 -24 13 -17 10 4
29 10 42 13 17 3 21 9 16 21 -3 9 -10 31 -16 49 -13 45 -77 210 -94 244 -17
33 -53 68 -70 68 -6 0 -17 -6 -23 -14z m48 -78 c27 -63 34 -98 19 -98 -7 0
-23 -3 -35 -6 -22 -6 -23 -4 -23 70 0 87 12 97 39 34z"/>
<path d="M4398 6176 c-29 -22 -22 -75 17 -133 38 -57 43 -86 21 -136 -26 -62
-95 -102 -118 -67 -15 23 7 70 32 70 27 0 26 26 -2 34 -49 13 -53 9 -55 -51
-4 -73 20 -103 82 -103 34 0 47 6 75 35 27 28 34 44 38 88 3 45 -1 63 -27 116
-29 56 -31 66 -21 97 16 46 46 43 44 -4 -2 -40 20 -43 39 -5 14 25 13 28 -20
50 -38 26 -79 29 -105 9z"/>
<path d="M2833 6142 c-34 -15 -75 -36 -90 -48 -26 -20 -27 -22 -13 -50 l14
-29 4 25 c4 26 27 50 49 50 24 0 158 -299 148 -331 -8 -23 4 -24 50 -2 36 17
46 33 21 33 -8 0 -41 65 -81 158 -37 86 -70 160 -72 164 -2 4 6 12 18 19 18 9
25 9 34 -5 16 -21 25 -20 25 2 0 20 -18 42 -34 42 -6 -1 -39 -13 -73 -28z"/>
<path d="M4644 6082 c10 -29 -141 -322 -166 -322 -32 0 -19 -16 37 -45 31 -15
58 -32 61 -36 9 -15 52 -10 58 7 11 29 6 39 -11 22 -14 -15 -19 -15 -45 -2
-15 8 -28 19 -28 25 0 5 16 41 35 79 32 63 37 69 55 60 11 -6 20 -18 20 -28 0
-13 4 -12 20 8 29 37 26 51 -10 44 -27 -6 -30 -4 -30 17 0 13 13 47 28 74 20
38 33 51 53 53 33 4 59 -21 52 -48 -8 -29 16 -25 27 6 6 14 10 27 10 30 0 6
-115 59 -148 69 -21 6 -23 4 -18 -13z"/>
<path d="M2583 6007 c-67 -24 -91 -69 -60 -111 14 -19 72 -35 128 -36 47 0 82
-28 104 -82 18 -46 14 -98 -10 -118 -25 -21 -58 16 -52 57 7 42 -8 51 -39 22
-24 -22 -33 -51 -14 -46 5 1 20 -11 33 -27 42 -52 123 -34 148 32 12 30 -4 90
-33 127 -26 33 -91 64 -135 65 -58 0 -118 81 -65 88 13 2 25 -3 28 -12 11 -28
25 -17 22 16 -4 37 -12 41 -55 25z"/>
<path d="M4866 5945 c5 -19 -5 -41 -43 -97 -106 -157 -137 -198 -150 -198 -22
0 -14 -14 23 -37 44 -29 54 -29 54 -1 0 34 89 168 112 168 4 0 8 -20 8 -45 0
-45 -25 -97 -73 -152 -18 -20 -18 -23 -4 -37 9 -9 20 -16 24 -16 15 0 103 177
103 205 0 16 6 25 16 25 23 0 84 64 84 88 0 28 -45 79 -91 102 -53 28 -71 26
-63 -5z m88 -41 c40 -15 -2 -94 -49 -94 -31 0 -31 10 -2 60 23 42 26 44 51 34z"/>
<path d="M2343 5843 c-13 -33 26 -142 87 -242 33 -54 60 -111 60 -125 0 -31 4
-32 41 -5 34 24 37 39 9 39 -23 0 -103 112 -98 137 2 9 16 21 33 26 28 10 32
7 77 -43 26 -30 48 -62 48 -71 0 -28 13 -29 44 -3 33 29 41 16 -88 154 -128
137 -195 179 -213 133z m87 -79 c28 -26 50 -50 50 -53 0 -4 -13 -14 -29 -24
-34 -20 -38 -17 -68 60 -19 45 -20 63 -6 63 2 0 26 -21 53 -46z"/>
<path d="M5141 5700 c-45 -21 -89 -53 -182 -132 -30 -26 -65 -48 -76 -48 -34
0 -35 -13 -1 -44 l33 -30 3 27 c4 30 95 117 123 117 9 0 24 -11 32 -24 14 -21
14 -26 0 -47 -27 -40 -86 -99 -100 -99 -7 0 -13 -5 -13 -11 0 -13 41 -48 55
-48 17 0 199 244 214 286 26 73 -4 91 -88 53z m20 -74 c-40 -57 -48 -62 -72
-40 -30 27 -23 40 39 78 68 42 79 30 33 -38z"/>
<path d="M3370 5690 c-50 -50 -49 -111 5 -250 111 -290 220 -384 170 -147 -52
248 -87 392 -96 404 -17 19 -56 16 -79 -7z"/>
<path d="M3681 5691 c-45 -45 -67 -191 -51 -345 19 -192 57 -237 103 -123 39
97 50 173 45 307 -3 101 -7 124 -25 147 -26 36 -47 39 -72 14z"/>
<path d="M2127 5659 c-10 -6 -35 -33 -57 -61 -40 -50 -45 -77 -10 -58 15 8 37
-8 142 -109 107 -104 122 -122 112 -138 -6 -10 -23 -22 -38 -28 -22 -8 -36 -4
-74 17 -60 33 -98 31 -146 -9 -37 -30 -38 -33 -32 -76 6 -40 4 -46 -18 -60
-21 -14 -24 -22 -19 -50 5 -31 2 -35 -27 -45 -28 -10 -31 -15 -25 -41 5 -24 2
-30 -15 -36 -17 -5 -20 -12 -16 -31 5 -17 1 -26 -14 -34 -17 -9 -20 -19 -18
-58 3 -45 1 -48 -29 -61 -33 -14 -42 -34 -23 -46 19 -12 10 -30 -21 -44 -25
-11 -29 -18 -24 -35 17 -56 16 -61 -20 -85 -19 -13 -35 -30 -35 -37 0 -20 16
-17 44 9 13 12 32 28 41 36 9 7 14 20 11 28 -19 47 -17 59 8 71 27 12 34 40
15 59 -8 8 -1 17 29 32 39 20 40 22 35 61 -5 35 -2 44 16 56 14 11 20 22 16
34 -4 12 1 22 13 29 13 7 18 18 15 38 -4 24 0 31 21 41 21 9 26 18 26 49 0 28
6 42 21 51 18 11 20 20 15 55 -5 36 -2 46 21 74 34 38 69 38 152 0 37 -18 63
-24 87 -20 24 4 43 -1 70 -18 21 -13 49 -22 62 -21 13 1 32 -3 43 -9 31 -16
126 -39 164 -39 19 0 37 -4 40 -10 3 -5 20 -10 36 -10 18 0 28 4 24 10 -3 6
-17 10 -31 10 -14 0 -36 7 -49 16 -14 9 -33 13 -44 9 -11 -3 -34 2 -53 12 -18
9 -37 16 -42 14 -6 -1 -29 5 -53 14 -23 9 -47 14 -53 10 -13 -8 -80 33 -80 49
0 7 14 25 30 41 34 33 42 62 12 46 -15 -8 -28 -1 -68 40 l-49 50 18 30 c22 40
22 86 -3 126 -32 54 -107 79 -153 52z m92 -64 c25 -25 34 -42 35 -70 0 -21 -4
-40 -11 -42 -6 -2 -40 23 -75 55 -63 60 -63 60 -44 81 24 27 49 20 95 -24z"/>
<path d="M5303 5544 c-24 -25 -25 -30 -20 -102 l6 -77 -45 -42 c-36 -35 -51
-43 -82 -43 -21 0 -47 6 -57 14 -18 13 -18 15 -1 41 15 23 22 26 52 20 44 -8
46 15 5 44 -35 25 -41 26 -41 4 0 -9 -10 -27 -22 -40 -33 -35 -28 -80 12 -116
27 -24 39 -28 68 -24 48 8 97 44 117 87 10 19 19 63 20 98 2 50 7 68 26 88 12
13 28 24 35 24 20 0 24 -26 7 -49 -8 -12 -13 -25 -10 -28 8 -7 60 11 64 23 2
5 -10 31 -27 57 -35 56 -66 62 -107 21z"/>
<path d="M3080 5525 c-25 -30 27 -152 106 -249 50 -62 153 -136 189 -136 26 0
45 18 45 43 0 37 -69 133 -177 245 -110 114 -136 130 -163 97z"/>
<path d="M4035 5396 c-37 -16 -79 -62 -171 -186 -93 -124 -98 -134 -82 -160 7
-11 18 -20 24 -20 21 0 189 112 221 148 71 80 109 185 78 215 -20 20 -30 21
-70 3z"/>
<path d="M4330 5141 c-260 -54 -455 -186 -548 -371 -42 -85 -81 -228 -82 -300
0 -30 -8 -44 -48 -81 -83 -78 -99 -168 -62 -352 28 -141 90 -268 167 -345 184
-185 438 -292 728 -309 95 -5 99 -5 83 12 -13 15 -22 16 -47 7 -26 -9 -31 -8
-31 4 0 13 -8 14 -42 9 -24 -4 -47 -8 -53 -9 -5 0 -9 7 -7 16 3 18 -5 18 -84
2 -13 -2 -24 2 -28 11 -4 11 2 15 20 15 14 0 22 4 19 10 -3 6 -41 10 -83 11
-60 1 -70 3 -44 9 57 13 48 20 -29 20 -70 0 -121 15 -91 27 22 9 2 23 -33 23
-39 0 -65 8 -65 21 0 5 26 9 58 9 40 0 53 3 42 10 -8 5 -36 10 -61 10 -72 0
-110 10 -107 28 2 10 -5 18 -17 20 -30 6 -43 22 -17 22 39 0 23 16 -34 34 -47
15 -60 24 -84 63 -102 161 -161 451 -110 543 14 24 14 24 21 -26 9 -70 28
-106 64 -117 36 -12 52 -31 60 -74 6 -31 25 -56 25 -33 0 6 5 8 10 5 6 -3 10
-14 10 -23 0 -29 19 -87 36 -107 14 -19 15 -18 10 20 -5 36 -4 37 6 15 48
-106 62 -129 73 -119 2 2 -3 21 -10 42 -7 20 -11 37 -10 37 2 0 20 -29 40 -65
37 -67 51 -78 57 -47 3 13 8 10 22 -15 11 -18 25 -29 33 -26 7 3 29 -9 50 -27
29 -26 42 -31 69 -27 23 4 34 1 38 -10 4 -8 12 -13 20 -10 7 3 30 -5 49 -19
40 -27 110 -52 147 -53 96 -3 137 0 240 19 64 12 151 36 195 53 65 26 79 36
80 55 1 15 33 55 85 107 46 47 81 88 77 92 -4 3 -22 -7 -40 -24 -86 -80 -197
-132 -352 -164 -152 -32 -379 -19 -515 29 -142 51 -304 175 -384 296 -110 168
-133 401 -57 590 69 171 159 270 328 358 131 68 241 98 408 111 22 2 6 4 -35
4 -41 1 -113 -7 -160 -16z m625 -1391 c-3 -5 -13 -10 -21 -10 -8 0 -12 5 -9
10 3 6 13 10 21 10 8 0 12 -4 9 -10z"/>
<path d="M2765 5120 c3 -5 17 -10 30 -10 13 0 36 -5 52 -11 40 -15 83 -20 83
-9 0 6 -15 10 -33 10 -18 0 -38 5 -44 11 -15 15 -97 23 -88 9z"/>
<path d="M2950 5070 c8 -5 27 -10 42 -10 15 0 30 -4 33 -10 3 -5 26 -10 51
-10 30 0 46 -5 50 -15 4 -10 20 -15 51 -15 24 0 42 4 39 8 -3 5 -18 7 -34 4
-21 -3 -35 2 -50 18 -17 18 -28 22 -56 17 -23 -4 -41 -1 -49 7 -6 7 -30 13
-52 14 -29 1 -36 -1 -25 -8z"/>
<path d="M4608 5065 c-37 -7 -73 -17 -80 -21 -16 -10 73 -34 128 -34 22 0 45
-5 52 -12 17 -17 116 -16 136 1 12 10 40 12 106 9 49 -2 90 -1 90 3 0 3 -28
19 -62 35 -56 25 -76 28 -183 31 -75 1 -146 -3 -187 -12z"/>
<path d="M5110 5059 c8 -5 49 -27 90 -48 108 -56 153 -92 202 -161 87 -124
124 -196 137 -269 7 -39 16 -69 20 -66 4 2 14 29 21 60 11 45 11 60 0 83 -23
50 -30 85 -19 98 8 9 1 11 -29 7 -39 -5 -40 -4 -80 53 -68 100 -120 143 -269
218 -70 35 -104 47 -73 25z"/>
<path d="M3245 4980 c-3 -5 3 -10 14 -10 12 0 21 5 21 10 0 6 -6 10 -14 10 -8
0 -18 -4 -21 -10z"/>
<path d="M3307 4965 c13 -17 28 -24 50 -25 21 0 37 -7 47 -21 9 -13 28 -22 53
-24 24 -3 43 -11 52 -24 9 -14 24 -21 47 -21 26 0 33 -4 36 -22 2 -17 11 -24
31 -26 15 -2 27 1 27 7 0 6 -11 11 -25 11 -18 0 -25 5 -25 19 0 22 -20 32 -50
24 -16 -4 -23 0 -27 16 -5 22 -43 37 -76 32 -12 -1 -20 5 -24 18 -4 17 -13 21
-49 21 -29 0 -47 5 -50 14 -3 8 -12 17 -20 20 -11 4 -10 0 3 -19z"/>
<path d="M4095 4934 c-94 -49 -177 -136 -203 -213 -19 -55 -4 -55 61 2 52 46
66 53 85 46 19 -7 29 -2 59 27 22 22 36 47 39 67 1 18 4 43 6 56 4 31 -9 35
-47 15z"/>
<path d="M2477 4863 c-23 -3 -42 -12 -50 -24 -6 -10 -18 -19 -25 -19 -30 0
-113 -52 -122 -76 -16 -42 -11 -51 9 -18 28 46 80 62 273 80 187 18 277 15
391 -13 63 -15 68 -18 42 -24 l-30 -6 30 -12 c96 -41 235 -114 268 -142 43
-35 97 -123 97 -156 0 -13 4 -23 9 -23 5 0 3 24 -5 53 -7 28 -11 66 -8 82 5
26 -2 39 -52 93 -64 72 -134 112 -203 117 -25 2 -64 10 -86 19 -61 23 -280 67
-349 71 -33 1 -71 -2 -83 -6 -14 -5 -23 -5 -23 1 0 10 -10 10 -83 3z m33 -17
c0 -2 -9 -6 -20 -9 -11 -3 -18 -1 -14 4 5 9 34 13 34 5z"/>
<path d="M3660 4770 c0 -5 5 -10 10 -10 6 0 10 5 10 10 0 6 -4 10 -10 10 -5 0
-10 -4 -10 -10z"/>
<path d="M2136 4707 c-30 -22 -36 -90 -18 -199 l15 -97 -26 -88 c-29 -94 -33
-127 -18 -166 11 -28 79 -103 87 -95 3 3 -9 27 -25 54 -36 56 -38 88 -11 174
24 75 26 162 4 221 -17 48 -23 137 -10 157 4 6 16 12 27 12 14 0 26 -16 45
-57 58 -132 76 -162 109 -187 18 -14 38 -26 44 -26 19 0 12 17 -13 28 -37 16
-72 69 -119 178 -43 100 -58 115 -91 91z"/>
<path d="M1941 4536 c-34 -59 -61 -136 -61 -175 0 -34 13 -16 34 49 10 30 31
82 47 114 33 67 32 66 20 66 -5 0 -23 -24 -40 -54z"/>
<path d="M5269 4403 c-171 -255 -262 -363 -402 -481 -21 -18 -37 -37 -35 -42
14 -42 242 175 333 318 33 51 96 149 141 218 45 68 75 124 68 124 -7 0 -54
-62 -105 -137z"/>
<path d="M1713 4480 c-43 -19 -53 -33 -32 -46 7 -4 16 0 20 9 5 8 25 21 44 27
19 6 33 16 30 21 -8 12 -12 11 -62 -11z"/>
<path d="M5646 4443 c-3 -10 -17 -67 -31 -127 -15 -60 -29 -116 -32 -125 -4
-11 -3 -13 5 -6 24 23 89 275 71 275 -4 0 -10 -8 -13 -17z"/>
<path d="M3871 4394 c-2 -148 113 -323 269 -408 82 -44 79 -25 -4 33 -102 70
-177 162 -216 263 -17 42 -30 88 -31 100 0 13 -4 32 -9 43 -6 15 -9 7 -9 -31z"/>
<path d="M5487 4378 c-25 -36 -81 -102 -123 -147 -42 -45 -74 -84 -71 -87 22
-23 180 134 222 220 40 81 26 89 -28 14z"/>
<path d="M1700 4408 c0 -7 -17 -22 -38 -33 -28 -16 -37 -26 -36 -45 1 -14 -5
-30 -13 -35 -12 -9 -12 -16 -2 -38 11 -24 10 -29 -6 -41 -16 -12 -17 -17 -6
-45 12 -29 11 -33 -18 -66 -16 -19 -28 -41 -25 -49 3 -7 -2 -16 -10 -19 -9 -4
-15 -18 -14 -34 0 -15 -3 -37 -6 -48 -6 -16 0 -24 29 -39 33 -18 49 -30 92
-66 7 -5 19 -10 26 -10 8 0 21 -10 30 -22 19 -29 31 -19 18 16 -7 16 -18 26
-31 26 -12 0 -20 7 -20 16 0 10 -6 14 -15 10 -8 -3 -19 3 -24 13 -6 10 -24 24
-41 31 -28 12 -30 15 -23 54 3 22 10 43 15 44 4 2 8 14 8 27 0 13 6 28 13 32
32 21 40 42 27 73 -10 24 -10 33 0 45 7 9 10 27 6 45 -4 23 -1 32 10 37 10 4
14 13 10 28 -5 18 2 28 34 49 26 17 37 31 34 41 -7 18 -24 20 -24 3z"/>
<path d="M1758 4313 c7 -3 16 -2 19 1 4 3 -2 6 -13 5 -11 0 -14 -3 -6 -6z"/>
<path d="M1720 4240 c0 -5 10 -10 23 -10 18 0 19 2 7 10 -19 13 -30 13 -30 0z"/>
<path d="M1714 4156 c11 -9 29 -16 40 -16 28 0 8 17 -29 25 -29 6 -29 6 -11
-9z"/>
<path d="M1890 4115 c0 -22 59 -120 97 -159 62 -65 107 -83 254 -100 209 -25
380 -56 594 -110 174 -44 184 -46 240 -46 30 0 55 4 55 9 0 6 29 24 64 41 34
17 85 53 112 81 48 49 52 70 5 25 -15 -13 -62 -43 -106 -66 -78 -41 -82 -42
-150 -36 -72 6 -126 16 -305 59 -248 59 -345 76 -512 86 -103 6 -142 13 -174
29 -47 24 -100 80 -139 146 -24 42 -35 54 -35 41z"/>
<path d="M1680 4090 c0 -5 7 -10 16 -10 8 0 12 5 9 10 -3 6 -10 10 -16 10 -5
0 -9 -4 -9 -10z"/>
<path d="M3396 4084 c-9 -23 -2 -28 13 -10 7 8 8 17 3 20 -6 3 -13 -1 -16 -10z"/>
<path d="M3319 4044 c-31 -43 -129 -118 -206 -158 -23 -11 -58 -16 -126 -16
-109 0 -193 22 -297 77 -36 18 -66 30 -68 25 -2 -6 -54 10 -117 34 -89 34
-133 45 -199 50 -48 4 -86 4 -86 1 0 -3 21 -13 48 -23 26 -10 52 -23 57 -29
11 -13 137 -41 222 -50 48 -5 137 -36 203 -70 53 -27 203 -58 260 -52 108 10
272 112 325 203 36 61 25 67 -16 8z"/>
<path d="M1652 3988 c3 -7 18 -14 34 -16 l29 -3 -29 16 c-34 18 -39 19 -34 3z"/>
<path d="M3423 3822 c-28 -86 -54 -168 -58 -182 l-6 -25 14 25 c23 41 108 301
105 321 -2 11 -26 -52 -55 -139z"/>
<path d="M3760 3964 c-2 -65 297 -330 352 -312 6 2 -8 15 -33 27 -77 41 -192
145 -296 269 -12 15 -22 22 -23 16z"/>
<path d="M2418 3953 c7 -3 16 -2 19 1 4 3 -2 6 -13 5 -11 0 -14 -3 -6 -6z"/>
<path d="M5396 3836 c-14 -19 -69 -78 -122 -131 -53 -53 -94 -98 -92 -100 13
-13 183 160 230 233 26 42 17 41 -16 -2z"/>
<path d="M1740 3807 c0 -16 9 -28 25 -35 14 -6 25 -16 25 -22 0 -5 8 -10 18
-10 11 0 24 -11 30 -25 6 -14 16 -25 22 -25 13 0 13 27 0 35 -5 3 -10 15 -10
27 0 14 -5 18 -15 14 -9 -3 -18 1 -21 9 -4 8 -15 15 -26 15 -11 0 -22 8 -25
20 -7 28 -23 25 -23 -3z"/>
<path d="M2460 3789 c0 -5 16 -9 36 -9 20 0 53 -4 73 -10 59 -16 260 -60 273
-60 24 0 -8 17 -72 38 -98 32 -310 60 -310 41z"/>
<path d="M3523 3740 c0 -25 2 -35 4 -22 2 12 2 32 0 45 -2 12 -4 2 -4 -23z"/>
<path d="M2056 3762 c5 -4 27 -14 49 -21 43 -13 210 -75 260 -96 41 -17 97
-39 178 -69 37 -14 95 -37 130 -50 196 -75 515 -181 523 -173 5 5 -35 20 -191
69 -90 29 -446 162 -730 273 -71 28 -210 75 -221 75 -5 0 -4 -4 2 -8z"/>
<path d="M2630 3732 c8 -5 38 -12 65 -15 31 -4 44 -3 35 2 -21 12 -120 25
-100 13z"/>
<path d="M1890 3707 c0 -17 34 -49 43 -41 7 8 -22 54 -34 54 -5 0 -9 -6 -9
-13z"/>
<path d="M1960 3681 c0 -12 8 -25 18 -28 9 -4 25 -16 35 -28 17 -20 17 -19 15
15 -2 24 -8 35 -19 35 -9 0 -24 6 -33 14 -14 12 -16 11 -16 -8z"/>
<path d="M3490 3673 c0 -14 19 -38 25 -32 8 8 -5 39 -16 39 -5 0 -9 -3 -9 -7z"/>
<path d="M4858 3625 c-43 -17 -75 -34 -72 -37 13 -14 154 38 169 62 10 16 -15
10 -97 -25z"/>
<path d="M2052 3638 c5 -13 72 -31 98 -25 22 4 -14 22 -64 31 -29 6 -37 4 -34
-6z"/>
<path d="M2170 3621 c0 -12 6 -21 16 -21 9 0 14 7 12 17 -5 25 -28 28 -28 4z"/>
<path d="M2228 3624 c-11 -10 4 -43 17 -38 7 3 22 -7 34 -22 23 -29 39 -27 26
3 -5 10 -9 22 -9 28 -1 5 -10 11 -21 13 -11 2 -25 8 -31 13 -6 5 -13 6 -16 3z"/>
<path d="M3470 3601 c0 -11 5 -23 10 -26 6 -3 10 3 10 14 0 11 -4 23 -10 26
-5 3 -10 -3 -10 -14z"/>
<path d="M2330 3566 c0 -14 27 -42 34 -35 2 2 0 14 -5 27 -9 24 -29 30 -29 8z"/>
<path d="M2380 3551 c0 -13 29 -35 37 -28 7 8 -15 37 -28 37 -5 0 -9 -4 -9 -9z"/>
<path d="M2440 3540 c0 -20 24 -60 36 -60 11 0 10 8 -3 35 -16 33 -33 46 -33
25z"/>
<path d="M3441 3518 c-1 -21 4 -38 9 -38 11 0 11 14 0 50 -7 22 -8 21 -9 -12z"/>
<path d="M2519 3483 c7 -27 31 -45 31 -23 0 17 -19 50 -29 50 -5 0 -6 -12 -2
-27z"/>
<path d="M2570 3472 c0 -10 21 -32 31 -32 4 0 5 9 2 20 -5 19 -33 29 -33 12z"/>
<path d="M2638 3445 c2 -14 8 -25 13 -25 5 0 9 11 9 25 0 14 -6 25 -14 25 -9
0 -12 -8 -8 -25z"/>
<path d="M3409 3442 c-3 -20 -2 -29 4 -23 5 5 7 19 5 32 -3 20 -5 19 -9 -9z"/>
<path d="M2686 3442 c-8 -13 10 -52 24 -52 13 0 12 10 -4 39 -8 15 -16 20 -20
13z"/>
<path d="M2750 3410 c0 -5 9 -10 21 -10 12 0 23 -8 26 -20 7 -26 23 -26 23 0
0 13 -10 24 -26 30 -32 13 -44 13 -44 0z"/>
<path d="M2850 3375 c0 -8 5 -15 10 -15 6 0 10 7 10 15 0 8 -4 15 -10 15 -5 0
-10 -7 -10 -15z"/>
<path d="M2900 3350 c0 -11 7 -20 15 -20 13 0 14 4 5 20 -6 11 -13 20 -15 20
-3 0 -5 -9 -5 -20z"/>
<path d="M2950 3338 c0 -18 27 -44 37 -34 4 4 -3 16 -15 29 -18 17 -22 18 -22
5z"/>
<path d="M5471 2894 c0 -11 3 -14 6 -6 3 7 2 16 -1 19 -3 4 -6 -2 -5 -13z"/>
<path d="M5448 2802 c-5 -35 1 -62 13 -62 12 0 12 77 0 84 -5 3 -11 -7 -13
-22z"/>
<path d="M5436 2664 c-8 -22 -6 -85 4 -109 6 -14 9 3 9 53 1 73 -2 85 -13 56z"/>
<path d="M5061 2844 c0 -11 3 -14 6 -6 3 7 2 16 -1 19 -3 4 -6 -2 -5 -13z"/>
<path d="M5040 2740 c0 -22 5 -40 10 -40 6 0 10 18 10 40 0 22 -4 40 -10 40
-5 0 -10 -18 -10 -40z"/>
<path d="M5031 2598 c1 -66 2 -69 10 -33 11 56 11 105 -1 105 -6 0 -10 -30 -9
-72z"/>
<path d="M3824 2808 c-70 -108 -135 -220 -131 -225 2 -2 15 1 28 5 13 5 47 13
75 17 l52 7 10 56 c14 74 26 212 19 212 -3 0 -27 -33 -53 -72z"/>
<path d="M4845 2818 c-26 -31 -35 -47 -50 -98 -7 -25 -7 -25 25 5 31 29 70 93
70 115 0 19 -18 10 -45 -22z"/>
<path d="M4524 2743 c-41 -70 -104 -227 -94 -236 11 -12 71 16 96 44 57 66 76
135 55 208 -11 40 -27 35 -57 -16z"/>
<path d="M4162 2673 c-22 -43 -52 -108 -66 -145 -21 -56 -22 -68 -10 -68 41 0
100 54 142 127 21 38 11 163 -13 163 -7 0 -31 -35 -53 -77z"/>
<path d="M4127 2681 c-4 -17 -3 -21 5 -13 5 5 8 16 6 23 -3 8 -7 3 -11 -10z"/>
<path d="M2220 2355 c-25 -8 -55 -20 -67 -26 -17 -9 -26 -9 -36 0 -12 9 -16 2
-21 -41 -4 -29 -10 -64 -13 -77 l-6 -24 74 5 c105 8 195 52 225 109 8 17 12
39 9 49 -5 17 -15 20 -63 19 -31 0 -77 -7 -102 -14z"/>
<path d="M2662 2553 c-28 -25 -50 -97 -58 -193 -6 -70 -5 -80 9 -80 22 0 94
92 108 138 27 91 -10 176 -59 135z"/>
</g>
</svg>
